<svg width="19" height="18" viewBox="0 0 19 18" fill="none" xmlns="http://www.w3.org/2000/svg">
<path d="M5.90515 10.2387L8.53636 7.60752L2.78117 1.86162C2.33489 1.41534 1.56319 1.53621 1.28426 2.11266C0.624137 3.49799 0.865874 5.19945 2.00947 6.35234L5.90515 10.2387ZM12.2089 8.55587C13.6314 9.21599 15.6304 8.75112 17.1087 7.2728C18.8846 5.49697 19.2286 2.94944 17.8618 1.5827C16.5044 0.225251 13.9568 0.559964 12.1717 2.3358C10.6934 3.81411 10.2285 5.81309 10.8886 7.23561L2.46505 15.6592C2.29121 15.833 2.19355 16.0688 2.19355 16.3147C2.19355 16.5605 2.29121 16.7963 2.46505 16.9702C2.6389 17.144 2.87468 17.2417 3.12053 17.2417C3.36639 17.2417 3.60217 17.144 3.77601 16.9702L9.5312 11.2336L15.2771 16.9795C15.3632 17.0655 15.4654 17.1338 15.5778 17.1804C15.6903 17.227 15.8108 17.251 15.9326 17.251C16.0543 17.251 16.1749 17.227 16.2873 17.1804C16.3998 17.1338 16.502 17.0655 16.5881 16.9795C16.6741 16.8934 16.7424 16.7912 16.789 16.6787C16.8356 16.5663 16.8596 16.4457 16.8596 16.324C16.8596 16.2022 16.8356 16.0817 16.789 15.9692C16.7424 15.8568 16.6741 15.7546 16.5881 15.6685L10.8422 9.92261L12.2089 8.55587Z" fill="white"/>
</svg>
